# xmcd
#
# Track frame offsets:
#	150
#	11925
#	25775
#	36487
#	46762
#	59150
#	69725
#	79475
#	92087
#	104350
#	117862
#	129387
#	144987
#	156262
#	168525
#	181087
#	190612
#	201062
#	214912
#	226462
#	243087
#	255325
#
# Disc length: 3587 seconds
#
# Revision: 0
# Processed by: cddbd v1.5.2PL0 Copyright (c) Steve Scherf et al.
# Submitted via: audiograbber 1.83.01
#
DISCID=340e0116
DTITLE=Cole Wilson and The Tumbleweeds - 22 Golden Greats
DYEAR=1993
DGENRE=Country
TTITLE0=Maple On the Tree
TTITLE1=The Outlaw
TTITLE2=Blue Eyes Crying In The Rain
TTITLE3=Little Swiss Miss Yodel
TTITLE4=Dear Old Sunny South By Tyhe Sea
TTITLE5=Never No Mo' Blues
TTITLE6=Mary Don't You Weep
TTITLE7=The Golden Rocket
TTITLE8=You're The Reason I'm Living
TTITLE9=Faded Coat Of Blue
TTITLE10=I Never Will Marry
TTITLE11=Little Buddy
TTITLE12=I Can't Help It
TTITLE13=The Cat Came back
TTITLE14=Mother, Pal, and Sweetheart
TTITLE15=Wreck Of The Old 79
TTITLE16=I Saw The Light
TTITLE17=The Highway Hobo
TTITLE18=The Smoke Went Up The Chimney
TTITLE19=Wedding Bells
TTITLE20=Take Me To The Lifeboat
TTITLE21=Let These Brown Eyes Smile At Me
EXTD=
EXTT0=
EXTT1=
EXTT2=
EXTT3=
EXTT4=
EXTT5=
EXTT6=
EXTT7=
EXTT8=
EXTT9=
EXTT10=
EXTT11=
EXTT12=
EXTT13=
EXTT14=
EXTT15=
EXTT16=
EXTT17=
EXTT18=
EXTT19=
EXTT20=
EXTT21=
PLAYORDER=
